<?xml version="1.0" encoding="UTF-8"?>
<svg version="1.1" xmlns="http://www.w3.org/2000/svg" width="360" height="360">
<path d="M0 0 C118.8 0 237.6 0 360 0 C360 118.8 360 237.6 360 360 C241.2 360 122.4 360 0 360 C0 241.2 0 122.4 0 0 Z " fill="#FEFEFE" transform="translate(0,0)"/>
<path d="M0 0 C12.99222686 5.12471171 12.99222686 5.12471171 17.109375 9.83203125 C19.78817805 8.54856078 22.21606375 7.12252743 24.671875 5.45703125 C36.66228857 -1.91663549 49.1969139 -2.98321368 62.90625 -0.47265625 C69.10271136 1.25828014 74.12193278 3.71700887 79.20703125 7.66015625 C81.30459978 9.18168961 81.30459978 9.18168961 85.109375 8.83203125 C87.11751578 7.66547846 87.11751578 7.66547846 89.109375 6.08203125 C98.13971447 -0.14477146 108.18743675 -2.67290158 119.109375 -1.16796875 C122.92161466 0.29827727 124.83540549 2.42107698 127.109375 5.83203125 C127.57910334 10.60760266 127.57986728 12.89104668 125.421875 17.20703125 C121.70389218 21.42744418 118.64059718 21.8220427 113.234375 22.20703125 C108.22789563 22.60425192 105.24755278 24.04325926 101.109375 26.83203125 C103.84254156 29.83851446 106.33708282 31.6242248 110.44140625 32.10546875 C111.25996094 32.13898438 112.07851562 32.1725 112.921875 32.20703125 C118.00256865 32.62729542 120.95640431 33.89034368 125.109375 36.83203125 C127.79058576 40.8538474 127.92281835 44.10439516 127.109375 48.83203125 C125.39859526 51.90380305 123.29966193 54.23688779 120.109375 55.83203125 C106.97623986 56.76792055 97.86455683 55.01486051 87.1171875 47.00390625 C84.92106701 45.49597795 84.92106701 45.49597795 81.109375 45.83203125 C79.10123422 46.99858404 79.10123422 46.99858404 77.109375 48.58203125 C65.75381908 56.32362188 53.48555949 57.18415749 40.109375 55.83203125 C33.14111421 54.41286601 27.71722875 51.25927034 22.08203125 47.00390625 C19.91863062 45.49154097 19.91863062 45.49154097 16.109375 45.83203125 C14.42145685 47.13835734 12.75703396 48.47527943 11.109375 49.83203125 C9.1008057 50.79979646 7.05642976 51.69642178 4.984375 52.51953125 C3.95054687 52.93589844 2.91671875 53.35226563 1.8515625 53.78125 C-2.70593175 55.52764025 -6.49062241 56.01489318 -11.328125 56.01953125 C-12.64683594 56.03371094 -13.96554688 56.04789063 -15.32421875 56.0625 C-18.57688157 55.85230602 -20.2478079 55.63595892 -22.890625 53.83203125 C-26.02353852 50.13966889 -26.46472511 46.67593478 -26.31640625 41.984375 C-25.62456567 38.48708915 -23.63708949 36.93978307 -20.890625 34.83203125 C-17.61542438 32.64856417 -16.45050285 32.59537877 -12.640625 32.45703125 C-7.32745749 32.08306328 -4.24782923 30.83366083 0.109375 27.83203125 C-3.67540295 24.33622145 -6.22820941 23.31258867 -11.328125 22.83203125 C-17.51394836 22.03431195 -21.30044353 21.12862585 -25.265625 16.08203125 C-26.23227591 12.60208796 -26.57613623 9.36818325 -25.890625 5.83203125 C-20.53318138 -3.42897723 -9.3626483 -2.78078657 0 0 Z " fill="#04C8BD" transform="translate(129.890625,116.16796875)"/>
<path d="M0 0 C11.97354697 4.43057854 21.93219527 16.97216626 30.5546875 25.9453125 C24.34687034 29.2481315 17.7511291 28.72588001 11.01953125 27.08203125 C7.13289304 25.87704195 3.29067509 24.56276805 -0.54296875 23.19921875 C-3.15297434 22.85086071 -4.54979061 23.64773651 -6.8828125 24.8203125 C-12.16016322 27.44522086 -16.69029992 28.08504937 -22.5703125 28.0703125 C-24.12105469 28.07417969 -24.12105469 28.07417969 -25.703125 28.078125 C-28.4453125 27.9453125 -28.4453125 27.9453125 -31.4453125 26.9453125 C-30.7853125 25.2953125 -30.1253125 23.6453125 -29.4453125 21.9453125 C-28.7853125 21.9453125 -28.1253125 21.9453125 -27.4453125 21.9453125 C-27.1153125 20.9553125 -26.7853125 19.9653125 -26.4453125 18.9453125 C-25.7853125 18.9453125 -25.1253125 18.9453125 -24.4453125 18.9453125 C-24.1153125 17.9553125 -23.7853125 16.9653125 -23.4453125 15.9453125 C-22.7853125 15.9453125 -22.1253125 15.9453125 -21.4453125 15.9453125 C-21.1153125 14.9553125 -20.7853125 13.9653125 -20.4453125 12.9453125 C-18.39534723 11.18489035 -16.35789973 9.55423954 -14.1953125 7.9453125 C-13.62167969 7.50703125 -13.04804688 7.06875 -12.45703125 6.6171875 C-10.8038977 5.36698172 -9.1314164 4.1505569 -7.4453125 2.9453125 C-6.58421875 2.3265625 -5.723125 1.7078125 -4.8359375 1.0703125 C-2.4453125 -0.0546875 -2.4453125 -0.0546875 0 0 Z " fill="#587FFB" transform="translate(181.4453125,133.0546875)"/>
<path d="M0 0 C2.5753455 0.56986368 4.29433456 1.16819118 6.625 2.5 C9.79968095 3.91096931 11.56174296 4.22747566 14.9375 4.4375 C19.98340969 4.81042545 22.87615768 6.07894503 27 9 C29.68121076 13.02181615 29.81344335 16.27236391 29 21 C27.28922026 24.0717718 25.19028693 26.40485654 22 28 C12.65775278 28.66574425 4.36040174 28.70723828 -4 24 C-4.85980469 23.51789063 -5.71960938 23.03578125 -6.60546875 22.5390625 C-11.21871443 19.72104886 -11.21871443 19.72104886 -13 18 C-13 13.67510769 -12.92819359 13.42543181 -10.15625 10.546875 C-9.27646484 9.61875 -9.27646484 9.61875 -8.37890625 8.671875 C-7.75886719 8.03765625 -7.13882813 7.4034375 -6.5 6.75 C-5.56994141 5.77546875 -5.56994141 5.77546875 -4.62109375 4.78125 C-3.08935233 3.17881282 -1.54898528 1.58574516 0 0 Z " fill="#05CABE" transform="translate(228,144)"/>
<path d="M0 0 C12.99222686 5.12471171 12.99222686 5.12471171 17.109375 9.83203125 C15.75955853 12.8691183 14.27020761 14.86944372 11.859375 17.14453125 C8.36387313 20.53011168 5.23160032 24.10059123 2.109375 27.83203125 C1.2225 27.21328125 0.335625 26.59453125 -0.578125 25.95703125 C-4.14336577 23.8760948 -7.37599684 23.34517095 -11.453125 22.83203125 C-17.57924336 22.0292985 -21.33810382 21.08069457 -25.265625 16.08203125 C-26.23227591 12.60208796 -26.57613623 9.36818325 -25.890625 5.83203125 C-20.53318138 -3.42897723 -9.3626483 -2.78078657 0 0 Z " fill="#5A81FC" transform="translate(129.890625,116.16796875)"/>
<path d="M0 0 C3.11168004 1.7058005 4.91692228 3.66599926 7.21875 6.359375 C10.78440213 10.50471483 10.78440213 10.50471483 14.59375 14.421875 C11.8866455 20.77885672 5.62786665 23.15923692 -0.46875 25.734375 C-7.34398648 28.11278314 -16.7994142 29.18898622 -23.73828125 26.52734375 C-26.32404102 24.81359664 -27.18755666 23.28580436 -28.40625 20.421875 C-28.92557581 17.31156501 -29.01964826 14.52263134 -28.40625 11.421875 C-25.96871638 8.32554851 -23.67174269 6.59887013 -20.40625 4.421875 C-17.953125 4.1484375 -17.953125 4.1484375 -15.15625 4.046875 C-11.30695181 3.78788528 -8.76152123 3.36180033 -5.53125 1.234375 C-2.40625 -0.578125 -2.40625 -0.578125 0 0 Z " fill="#04CABE" transform="translate(132.40625,144.578125)"/>
<path d="M0 0 C3.20738803 3.0340157 4.24950063 4.54700644 4.6875 9 C4.56720452 13.35469649 3.22096077 15.88600399 0.3125 19.1875 C-3.46915167 21.52322603 -7.45821754 21.45739955 -11.796875 21.55078125 C-15.93202741 22.31704423 -15.93202741 22.31704423 -23.6875 27.1875 C-28.6375 21.9075 -33.5875 16.6275 -38.6875 11.1875 C-35.37932241 4.57114482 -28.72599636 1.67839236 -21.875 -0.6875 C-15.15560403 -2.46023164 -6.16572688 -3.91953298 0 0 Z " fill="#5A80FC" transform="translate(252.6875,116.8125)"/>
<path d="M0 0 C2.89513781 1.99172802 3.60756406 2.51019218 4.75 5.9375 C3.96625 5.7725 3.1825 5.6075 2.375 5.4375 C-6.0749747 4.27198625 -12.44794966 4.96984707 -20.48828125 7.96484375 C-25.74260532 9.81537656 -28.50908306 10.19714313 -33.75 8.0625 C-39.0328952 5.94043816 -43.604542 4.79485562 -49.3125 4.8125 C-50.14910156 4.80992188 -50.98570312 4.80734375 -51.84765625 4.8046875 C-54.11720328 4.93015839 -56.07342657 5.30413221 -58.25 5.9375 C-56.14679287 0.99862555 -52.87418214 -0.64357964 -48.25 -3.0625 C-47.48945313 -3.46082031 -46.72890625 -3.85914062 -45.9453125 -4.26953125 C-31.52845536 -10.6246256 -13.09466798 -8.23034775 0 0 Z " fill="#06A18D" transform="translate(207.25,122.0625)"/>
<path d="M0 0 C9.00702986 3.18903722 16.92400303 3.46193732 26.328125 3.02734375 C23.24286927 6.30474174 20.51395277 8.76227321 16.453125 10.71484375 C15.25042969 11.30845703 15.25042969 11.30845703 14.0234375 11.9140625 C3.30014403 16.34324893 -10.75591357 17.18224551 -21.859375 13.40234375 C-26.70740844 11.2468099 -31.75974046 8.64969054 -35.671875 5.02734375 C-35.671875 4.03734375 -35.671875 3.04734375 -35.671875 2.02734375 C-34.681875 2.35734375 -33.691875 2.68734375 -32.671875 3.02734375 C-24.29781543 3.69013081 -16.0619659 3.11628046 -8.640625 -1.13671875 C-5.38077898 -2.52085972 -3.20917044 -1.16825064 0 0 Z " fill="#2242FC" transform="translate(185.671875,156.97265625)"/>
<path d="M0 0 C3.25428396 1.42782615 5.44028833 3.17050843 7.9375 5.6875 C8.91009766 6.65236328 8.91009766 6.65236328 9.90234375 7.63671875 C12.50219235 10.56578468 14.72360527 13.81304738 17 17 C12.05 22.28 7.1 27.56 2 33 C-1.37293565 31.31353217 -2.93346994 30.30850283 -5.453125 27.7421875 C-6.071875 27.11699219 -6.690625 26.49179688 -7.328125 25.84765625 C-7.96234375 25.19667969 -8.5965625 24.54570312 -9.25 23.875 C-9.8996875 23.21628906 -10.549375 22.55757812 -11.21875 21.87890625 C-12.81711727 20.25703357 -14.41061897 18.6306719 -16 17 C-12.37068427 12.67116166 -8.65033216 8.53343578 -4.625 4.5625 C-3.75101563 3.69753906 -2.87703125 2.83257812 -1.9765625 1.94140625 C-1.32429687 1.30074219 -0.67203125 0.66007812 0 0 Z " fill="#0365BD" transform="translate(212,127)"/>
<path d="M0 0 C0.66 0 1.32 0 2 0 C2 0.66 2 1.32 2 2 C2.5775 2.226875 3.155 2.45375 3.75 2.6875 C6.59591381 4.34761639 7.99841921 6.39187957 10 9 C10.86625 9.845625 11.7325 10.69125 12.625 11.5625 C14.70981899 13.70218264 15.88811642 15.27083122 17 18 C16.0925 18.721875 15.185 19.44375 14.25 20.1875 C12.07692682 21.98131041 10.53916537 23.57604329 8.75 25.8125 C8.1725 26.534375 7.595 27.25625 7 28 C6.34 28 5.68 28 5 28 C4.34 29.32 3.68 30.64 3 32 C-1 32 -1 32 -3.4375 29.953125 C-4.283125 29.06109375 -5.12875 28.1690625 -6 27.25 C-6.845625 26.36828125 -7.69125 25.4865625 -8.5625 24.578125 C-9.7690625 23.30195313 -9.7690625 23.30195313 -11 22 C-12.32883646 20.66218491 -13.66047961 19.32711743 -15 18 C-13.34890181 13.93122232 -10.46404222 11.02285879 -7.5 7.875 C-7.00113281 7.33746094 -6.50226563 6.79992187 -5.98828125 6.24609375 C-4.02214504 4.13236554 -2.04136111 2.04136111 0 0 Z " fill="#0265BC" transform="translate(147,127)"/>
<path d="M0 0 C4.05826371 2.10428489 6.30773374 3.77319797 8 8 C8.57903708 12.20365883 8.42411894 15.91614049 6.875 19.875 C3.56215197 23.6295611 0.37084018 24.85570103 -4.5625 25.375 C-8 25 -8 25 -13 22 C-13 26.29 -13 30.58 -13 35 C-13.99 35 -14.98 35 -16 35 C-16.14532035 30.43783535 -16.23408477 25.87626638 -16.3125 21.3125 C-16.35439453 20.01892578 -16.39628906 18.72535156 -16.43945312 17.39257812 C-16.45556641 16.14541016 -16.47167969 14.89824219 -16.48828125 13.61328125 C-16.51446533 12.46641846 -16.54064941 11.31955566 -16.56762695 10.13793945 C-15.82445379 6.02955037 -14.16166041 4.63176345 -11 2 C-7.29137017 -0.47241989 -4.30094385 -0.66668695 0 0 Z " fill="#1D668C" transform="translate(114,210)"/>
<path d="M0 0 C4.60799482 1.88508879 6.61225544 4.7020598 9 9 C9.28139654 11.78582574 9.38863832 14.12356255 9.25 16.875 C9.23195312 17.56335938 9.21390625 18.25171875 9.1953125 18.9609375 C9.14863748 20.6412381 9.07690939 22.32081163 9 24 C6.66666667 24 4.33333333 24 2 24 C1.34 24.33 0.68 24.66 0 25 C-6.71540516 25.79674298 -6.71540516 25.79674298 -10.046875 23.73046875 C-15.8125989 18.8343685 -15.8125989 18.8343685 -16.203125 15.01171875 C-16.30046929 10.18506418 -16.27193341 6.83605986 -13 3 C-8.93948266 -0.36442865 -5.07090655 -0.74208389 0 0 Z " fill="#105F88" transform="translate(166,210)"/>
<path d="M0 0 C3.89662226 1.53678667 6.02480931 3.28664149 8 7 C8.96283433 12.95294836 8.45571967 19.01867939 8 25 C7.01 25 6.02 25 5 25 C5 24.01 5 23.02 5 22 C4.154375 22.495 3.30875 22.99 2.4375 23.5 C-1.48083062 25.209817 -3.76813363 25.5289833 -8 25 C-12.86953166 22.56523417 -15.18709505 20.13656401 -17 15 C-17.47884234 11.64810361 -17.75956457 9.27176137 -15.98046875 6.29296875 C-11.31319991 0.4976591 -7.21155398 -1.37970245 0 0 Z " fill="#146188" transform="translate(254,210)"/>
<path d="M0 0 C2.20809529 1.46559901 4.24644457 2.92321179 6.3125 4.5625 C6.86228516 4.98724609 7.41207031 5.41199219 7.97851562 5.84960938 C9.3251827 6.89181259 10.66346201 7.94483843 12 9 C8.9985502 12.09656616 6.0460897 14.91521243 2.5 17.375 C1.7678125 17.89835937 1.035625 18.42171875 0.28125 18.9609375 C-2.68409278 20.3115902 -3.93947561 20.05308366 -7 19 C-9.60546875 17.4765625 -9.60546875 17.4765625 -12.1875 15.625 C-13.04730469 15.01914063 -13.90710938 14.41328125 -14.79296875 13.7890625 C-17 12 -17 12 -19 9 C-17.04312041 7.51887554 -15.08458563 6.04003653 -13.125 4.5625 C-12.56941406 4.14162109 -12.01382813 3.72074219 -11.44140625 3.28710938 C-5.03118068 -1.53986771 -5.03118068 -1.53986771 0 0 Z " fill="#F8FBFC" transform="translate(184,134)"/>
<path d="M0 0 C1.051875 0.2475 1.051875 0.2475 2.125 0.5 C5.09518399 1.18677613 5.09518399 1.18677613 8.4375 0.375 C12 0 12 0 15.125 1.625 C16.07375 2.07875 17.0225 2.5325 18 3 C20.55503957 1.71711243 20.55503957 1.71711243 23 0 C26.07213383 -0.5229164 27.99384169 -0.63177382 30.6796875 1.0546875 C32.88733217 2.83981645 34.71936295 4.4387259 36 7 C36.07194869 9.88370333 36.09291708 12.74239664 36.0625 15.625 C36.05798828 16.42679688 36.05347656 17.22859375 36.04882812 18.0546875 C36.03703168 20.03649006 36.01909605 22.01825433 36 24 C34.68 24 33.36 24 32 24 C31.94392578 22.19402344 31.94392578 22.19402344 31.88671875 20.3515625 C31.82107072 18.77600989 31.75462299 17.20049046 31.6875 15.625 C31.65366211 14.43390625 31.65366211 14.43390625 31.61914062 13.21875 C31.52214925 11.13784419 31.27005175 9.06558668 31 7 C27.76746204 4.84497469 26.74849077 4.53143865 23 5 C21.04318702 6.52856712 20.12351825 7.4568963 19.56762695 9.90112305 C19.54144287 10.59761963 19.51525879 11.29411621 19.48828125 12.01171875 C19.45283203 12.76904297 19.41738281 13.52636719 19.38085938 14.30664062 C19.35830078 15.09232422 19.33574219 15.87800781 19.3125 16.6875 C19.27833984 17.48478516 19.24417969 18.28207031 19.20898438 19.10351562 C19.12661896 21.06851904 19.06162933 23.03423696 19 25 C18.01 24.67 17.02 24.34 16 24 C15.96261719 22.87980469 15.92523438 21.75960937 15.88671875 20.60546875 C15.82105743 19.1327791 15.75461014 17.66012434 15.6875 16.1875 C15.66494141 15.44951172 15.64238281 14.71152344 15.61914062 13.95117188 C15.42975007 9.74058478 15.42975007 9.74058478 13.6484375 6.01171875 C11.03977225 4.4106659 8.97315202 4.62044868 6 5 C4.0243438 7.96348429 3.73623141 8.68020373 3.5859375 12.01171875 C3.54726562 12.76904297 3.50859375 13.52636719 3.46875 14.30664062 C3.4378125 15.09232422 3.406875 15.87800781 3.375 16.6875 C3.33632812 17.48478516 3.29765625 18.28207031 3.2578125 19.10351562 C3.16367506 21.06863475 3.08075368 23.0342854 3 25 C1.68 24.67 0.36 24.34 -1 24 C-1.02887236 20.18751574 -1.04675492 16.3750593 -1.0625 12.5625 C-1.07087891 11.47388672 -1.07925781 10.38527344 -1.08789062 9.26367188 C-1.09111328 8.22919922 -1.09433594 7.19472656 -1.09765625 6.12890625 C-1.10289307 5.17056885 -1.10812988 4.21223145 -1.11352539 3.22485352 C-1 1 -1 1 0 0 Z " fill="#286F93" transform="translate(199,210)"/>
<path d="M0 0 C3.64146056 0.80345393 5.15231038 2.45282347 7.1953125 5.484375 C8.08245201 9.65393068 7.37662354 11.17841262 5.1953125 14.859375 C1.67306426 17.94134221 1.67306426 17.94134221 -1.8046875 18.171875 C-5.033967 17.90276837 -5.99001006 17.35696574 -8.8046875 15.421875 C-11.32398985 11.72164967 -11.5113216 9.8812094 -10.8046875 5.484375 C-8.28479822 0.33503603 -5.38467311 -0.31988157 0 0 Z " fill="#F4F8F9" transform="translate(251.8046875,213.515625)"/>
<path d="M0 0 C3.29911081 0.75826337 4.82616702 1.80614627 6.9375 4.4453125 C7.72940864 9.43433691 7.74130719 11.27613841 4.875 15.4453125 C1.17477467 17.96461485 -0.6656656 18.1519466 -5.0625 17.4453125 C-8.81129143 15.40792585 -9.83419934 14.13021449 -11.1875 10.0703125 C-11.0625 6.4453125 -11.0625 6.4453125 -9.125 3.0078125 C-5.72312247 0.16134355 -4.28685886 -0.37347634 0 0 Z " fill="#F8FAFB" transform="translate(164.0625,213.5546875)"/>
<path d="M0 0 C3.5060303 0.86943897 4.94966563 2.56083702 6.9375 5.48046875 C7.5625 8.98046875 7.5625 8.98046875 6.9375 12.48046875 C4.875 15.41796875 4.875 15.41796875 1.9375 17.48046875 C-2.36524909 18.171982 -4.27195312 17.9960428 -7.9375 15.60546875 C-10.43704287 13.10592588 -10.97206794 12.15870917 -11.4375 8.66796875 C-11.0625 5.48046875 -11.0625 5.48046875 -9.0625 2.60546875 C-5.72064571 0.23832196 -4.00209545 -0.28044987 0 0 Z " fill="#F2F7F8" transform="translate(112.0625,213.51953125)"/>
<path d="M0 0 C0.99 0 1.98 0 3 0 C3 3.96 3 7.92 3 12 C3.99 11.34 4.98 10.68 6 10 C9.39057026 9.45406072 12.60984923 9.44849222 16 10 C19.0625 12.4375 19.0625 12.4375 21 15 C21.33 15.33 21.66 15.66 22 16 C22.08651611 17.41570123 22.10704904 18.835595 22.09765625 20.25390625 C22.09443359 21.10791016 22.09121094 21.96191406 22.08789062 22.84179688 C22.07951172 23.73962891 22.07113281 24.63746094 22.0625 25.5625 C22.05798828 26.46419922 22.05347656 27.36589844 22.04882812 28.29492188 C22.03700225 30.53001314 22.0205222 32.76497437 22 35 C21.01 35 20.02 35 19 35 C18.93941406 33.80761719 18.87882812 32.61523438 18.81640625 31.38671875 C18.73198851 29.82030075 18.64734113 28.25389512 18.5625 26.6875 C18.52318359 25.90181641 18.48386719 25.11613281 18.44335938 24.30664062 C18.40146484 23.54931641 18.35957031 22.79199219 18.31640625 22.01171875 C18.27974854 21.31522217 18.24309082 20.61872559 18.20532227 19.90112305 C18.04418847 17.7783428 18.04418847 17.7783428 17 15 C15.783125 14.731875 14.56625 14.46375 13.3125 14.1875 C12.62800781 14.03667969 11.94351563 13.88585937 11.23828125 13.73046875 C8.74888825 13.84650927 8.74888825 13.84650927 6.28125 15.96875 C3.34458551 19.87089323 3.22573958 22.55804537 3.1875 27.3125 C3.16236328 28.05306641 3.13722656 28.79363281 3.11132812 29.55664062 C3.05281557 31.37052969 3.02345651 33.18531903 3 35 C2.01 35 1.02 35 0 35 C0 23.45 0 11.9 0 0 Z " fill="#14648F" transform="translate(125,200)"/>
<path d="M0 0 C1.051875 0.2475 1.051875 0.2475 2.125 0.5 C5.10501273 1.18702746 5.10501273 1.18702746 8.5 0.375 C12.51771614 -0.05546959 13.84326308 0.60853263 17 3 C14.19106983 4.79771531 12.80671049 4.99666742 9.375 4.9375 C8.26125 4.958125 7.1475 4.97875 6 5 C4.0243438 7.96348429 3.73623141 8.68020373 3.5859375 12.01171875 C3.54726562 12.76904297 3.50859375 13.52636719 3.46875 14.30664062 C3.4378125 15.09232422 3.406875 15.87800781 3.375 16.6875 C3.33632812 17.48478516 3.29765625 18.28207031 3.2578125 19.10351562 C3.16367506 21.06863475 3.08075368 23.0342854 3 25 C1.68 24.67 0.36 24.34 -1 24 C-1.02887236 20.18751574 -1.04675492 16.3750593 -1.0625 12.5625 C-1.07087891 11.47388672 -1.07925781 10.38527344 -1.08789062 9.26367188 C-1.09111328 8.22919922 -1.09433594 7.19472656 -1.09765625 6.12890625 C-1.10289307 5.17056885 -1.10812988 4.21223145 -1.11352539 3.22485352 C-1 1 -1 1 0 0 Z " fill="#427E9E" transform="translate(199,210)"/>
<path d="M0 0 C0.99 0 1.98 0 3 0 C3.33 0.66 3.66 1.32 4 2 C4.99 1.34 5.98 0.68 7 0 C9.48046875 -0.1953125 9.48046875 -0.1953125 12.1875 -0.125 C13.08855469 -0.10695312 13.98960937 -0.08890625 14.91796875 -0.0703125 C15.60503906 -0.04710937 16.29210937 -0.02390625 17 0 C17.33 1.32 17.66 2.64 18 4 C17.40832031 3.94199219 16.81664062 3.88398438 16.20703125 3.82421875 C15.41683594 3.77910156 14.62664062 3.73398438 13.8125 3.6875 C13.03519531 3.62949219 12.25789062 3.57148438 11.45703125 3.51171875 C7.65465276 4.26735835 6.29904368 5.93460843 4 9 C3.29165462 11.77698348 3.21047607 14.45580859 3.1875 17.3125 C3.16236328 18.05306641 3.13722656 18.79363281 3.11132812 19.55664062 C3.05281557 21.37052969 3.02345651 23.18531903 3 25 C2.01 25 1.02 25 0 25 C0 16.75 0 8.5 0 0 Z " fill="#095680" transform="translate(179,210)"/>
<path d="M0 0 C0.99 0 1.98 0 3 0 C3 4.29 3 8.58 3 13 C3.66 13.33 4.32 13.66 5 14 C4.01 14.99 3.02 15.98 2 17 C2.33 17.33 2.66 17.66 3 18 C3.07325168 20.86267567 3.09238205 23.700719 3.0625 26.5625 C3.05798828 27.36880859 3.05347656 28.17511719 3.04882812 29.00585938 C3.03700518 31.00393756 3.01906914 33.00197783 3 35 C2.01 35 1.02 35 0 35 C0 23.45 0 11.9 0 0 Z " fill="#065783" transform="translate(125,200)"/>
<path d="M0 0 C2.14517925 3.47035825 2.17412457 6.04785878 1.9765625 10.078125 C1.925 11.23828125 1.8734375 12.3984375 1.8203125 13.59375 C1.75585938 14.8003125 1.69140625 16.006875 1.625 17.25 C1.56828125 18.47203125 1.5115625 19.6940625 1.453125 20.953125 C1.31173944 23.9693502 1.16033265 26.9847323 1 30 C0.01 30 -0.98 30 -2 30 C-2.04939662 26.04903022 -2.08571755 22.0981797 -2.10986328 18.14697266 C-2.12488107 16.1408864 -2.15028981 14.13488676 -2.17578125 12.12890625 C-2.18544922 10.24365234 -2.18544922 10.24365234 -2.1953125 8.3203125 C-2.20578613 7.15773926 -2.21625977 5.99516602 -2.22705078 4.79736328 C-2 2 -2 2 0 0 Z " fill="#095984" transform="translate(100,215)"/>
<path d="M0 0 C3 0 3 0 4.6875 1.4375 C6.37479472 4.73174207 6.05019953 7.16996178 5.90625 10.8046875 C6.03461256 13.81051089 7.18440881 15.65486138 9 18 C7.35 19.65 5.7 21.3 4 23 C2.68 22.34 1.36 21.68 0 21 C0.66 21 1.32 21 2 21 C1.86142159 17.87463363 1.71290431 14.74981783 1.5625 11.625 C1.52318359 10.73554688 1.48386719 9.84609375 1.44335938 8.9296875 C1.38051758 7.65351563 1.38051758 7.65351563 1.31640625 6.3515625 C1.27974854 5.56604004 1.24309082 4.78051758 1.20532227 3.97119141 C1.109109 1.92476504 1.109109 1.92476504 0 0 Z " fill="#DBE8EE" transform="translate(145,214)"/>
<path d="M0 0 C2.48046875 1.421875 2.48046875 1.421875 5 4 C5.63389665 7.09971709 5.47234026 10.10237647 5.3125 13.25 C5.28994141 14.09046875 5.26738281 14.9309375 5.24414062 15.796875 C5.18537714 17.86534964 5.09569885 19.93290488 5 22 C4.01 22 3.02 22 2 22 C2 20.35 2 18.7 2 17 C1.34 17 0.68 17 0 17 C0.09539062 16.25234375 0.19078125 15.5046875 0.2890625 14.734375 C0.39992188 13.74953125 0.51078125 12.7646875 0.625 11.75 C0.74101562 10.77546875 0.85703125 9.8009375 0.9765625 8.796875 C1.00144803 5.82720122 0.3873638 4.54913999 -1 2 C-0.67 1.34 -0.34 0.68 0 0 Z " fill="#105E88" transform="translate(257,213)"/>
<path d="M0 0 C-2.20961747 2.54106009 -3.73988358 3.30621489 -7 4 C-6.95359375 5.10859375 -6.9071875 6.2171875 -6.859375 7.359375 C-6.82184898 8.82288968 -6.78544971 10.28643356 -6.75 11.75 C-6.71648437 12.47960937 -6.68296875 13.20921875 -6.6484375 13.9609375 C-6.58097375 17.67144375 -6.65672348 19.57156961 -9.015625 22.515625 C-9.67046875 23.00546875 -10.3253125 23.4953125 -11 24 C-11.33 23.01 -11.66 22.02 -12 21 C-11.34 21 -10.68 21 -10 21 C-10.04640625 19.90300781 -10.0928125 18.80601562 -10.140625 17.67578125 C-10.1781579 16.2213815 -10.21455643 14.76695217 -10.25 13.3125 C-10.28351563 12.59126953 -10.31703125 11.87003906 -10.3515625 11.12695312 C-10.42291404 7.22045657 -10.27534719 5.43065666 -8.109375 2.04296875 C-5.0416335 -0.9281957 -3.98509004 -1.19552701 0 0 Z " fill="#D9E6EB" transform="translate(138,214)"/>
<path d="M0 0 C2.29501486 1.12805815 3.98392717 2.38714173 6 4 C2.12087143 5.29304286 -1.25588528 4.92965973 -5.30859375 4.7421875 C-8.42735458 5.04093672 -9.7067161 5.92899657 -12 8 C-12.66 6.68 -13.32 5.36 -14 4 C-9.43825784 0.35060627 -5.87713435 -1.21274201 0 0 Z " fill="#18638B" transform="translate(114,210)"/>
<path d="M0 0 C2.97 0.495 2.97 0.495 6 1 C6.94148531 3.82445592 7.07311695 5.14171618 6.87890625 8.01171875 C6.83056641 8.76904297 6.78222656 9.52636719 6.73242188 10.30664062 C6.67634766 11.09232422 6.62027344 11.87800781 6.5625 12.6875 C6.51029297 13.48478516 6.45808594 14.28207031 6.40429688 15.10351562 C6.27480978 17.06936522 6.13809959 19.03473665 6 21 C5.01 20.67 4.02 20.34 3 20 C2.92652344 18.33710938 2.92652344 18.33710938 2.8515625 16.640625 C2.77650785 15.17705935 2.70096119 13.71351888 2.625 12.25 C2.5940625 11.52039063 2.563125 10.79078125 2.53125 10.0390625 C2.3251506 6.26057344 2.08487157 3.22053332 0 0 Z " fill="#075982" transform="translate(212,214)"/>
<path d="M0 0 C0.33 0 0.66 0 1 0 C1 7.59 1 15.18 1 23 C-0.32 22.34 -1.64 21.68 -3 21 C-3.57421875 18.06640625 -3.57421875 18.06640625 -3.6875 14.5625 C-3.85826908 9.69552185 -3.85826908 9.69552185 -5 5 C-3.68 4.67 -2.36 4.34 -1 4 C-0.67 2.68 -0.34 1.36 0 0 Z " fill="#D7E5EA" transform="translate(178,211)"/>
<path d="M0 0 C-1.65 1.98 -3.3 3.96 -5 6 C-4.01 6.33 -3.02 6.66 -2 7 C-2.99 7.33 -3.98 7.66 -5 8 C-5.33 8.66 -5.66 9.32 -6 10 C-11.75 8.375 -11.75 8.375 -14 5 C-5.92255125 -0.74031891 -5.92255125 -0.74031891 0 0 Z " fill="#EFF6FB" transform="translate(244,138)"/>
<path d="M0 0 C0.99 0.33 1.98 0.66 3 1 C3 8.26 3 15.52 3 23 C2.01 23 1.02 23 0 23 C0 15.41 0 7.82 0 0 Z " fill="#095A87" transform="translate(199,212)"/>
<path d="M0 0 C0.66 0.33 1.32 0.66 2 1 C1.835 1.598125 1.67 2.19625 1.5 2.8125 C0.8885876 5.11344336 0.8885876 5.11344336 1 8 C0.01 8.33 -0.98 8.66 -2 9 C-2.33 9.66 -2.66 10.32 -3 11 C-2.01 11.33 -1.02 11.66 0 12 C-0.66 12.66 -1.32 13.32 -2 14 C-4.31 12.02 -6.62 10.04 -9 8 C-6.14723863 5.06799526 -3.34920216 2.35684596 0 0 Z " fill="#EBF6F9" transform="translate(174,136)"/>
<path d="M0 0 C2.475 0.99 2.475 0.99 5 2 C7.43793514 2.23869189 7.43793514 2.23869189 9.8125 2.125 C10.60269531 2.10695312 11.39289063 2.08890625 12.20703125 2.0703125 C12.79871094 2.04710937 13.39039062 2.02390625 14 2 C12 5 12 5 9.25 5.875 C5.23756576 7.26391954 3.12995165 9.16813898 0 12 C0 8.04 0 4.08 0 0 Z " fill="#EDF3F5" transform="translate(101,232)"/>
<path d="M0 0 C1 4 1 4 2 8 C1.34 7.67 0.68 7.34 0 7 C-0.53625 7.309375 -1.0725 7.61875 -1.625 7.9375 C-5.25001966 9.55921932 -8.03997483 9.31935687 -12 9 C-12.66 8.01 -13.32 7.02 -14 6 C-13.67 5.01 -13.34 4.02 -13 3 C-12.34 3.33 -11.68 3.66 -11 4 C-5.85520422 4.52959708 -5.85520422 4.52959708 -1.5625 2 C-1.046875 1.34 -0.53125 0.68 0 0 Z " fill="#20678D" transform="translate(170,226)"/>
<path d="M0 0 C1.485 0.99 1.485 0.99 3 2 C3.34057617 3.97119141 3.34057617 3.97119141 3.29296875 6.3515625 C3.28330078 7.20234375 3.27363281 8.053125 3.26367188 8.9296875 C3.23853516 9.81914062 3.21339844 10.70859375 3.1875 11.625 C3.17396484 12.5221875 3.16042969 13.419375 3.14648438 14.34375 C3.11106925 16.56309789 3.06168461 18.78125188 3 21 C2.01 21 1.02 21 0 21 C-0.19592461 17.68794116 -0.38032746 14.37534146 -0.5625 11.0625 C-0.61857422 10.11697266 -0.67464844 9.17144531 -0.73242188 8.19726562 C-0.78076172 7.29814453 -0.82910156 6.39902344 -0.87890625 5.47265625 C-0.9260376 4.64000244 -0.97316895 3.80734863 -1.02172852 2.94946289 C-1 1 -1 1 0 0 Z " fill="#0A5A85" transform="translate(144,214)"/>
<path d="M0 0 C1.98 0 3.96 0 6 0 C5.2575 0.5775 4.515 1.155 3.75 1.75 C-1.22841356 5.45915573 -1.22841356 5.45915573 -3.54589844 10.93261719 C-3.5668457 12.04282227 -3.58779297 13.15302734 -3.609375 14.296875 C-3.64160156 15.50214844 -3.67382812 16.70742187 -3.70703125 17.94921875 C-3.72121094 19.20347656 -3.73539062 20.45773438 -3.75 21.75 C-3.77964844 23.01972656 -3.80929688 24.28945312 -3.83984375 25.59765625 C-3.91053951 28.73183485 -3.96324012 31.86526956 -4 35 C-4.33 35 -4.66 35 -5 35 C-5.04946866 30.92492428 -5.08575189 26.84996503 -5.10986328 22.7746582 C-5.1199157 21.38855952 -5.1335597 20.00248201 -5.15087891 18.61645508 C-5.17515952 16.6233025 -5.18542031 14.62999467 -5.1953125 12.63671875 C-5.20578613 11.43748779 -5.21625977 10.23825684 -5.22705078 9.00268555 C-5 6 -5 6 -3 3 C-2.34 3 -1.68 3 -1 3 C-0.67 2.01 -0.34 1.02 0 0 Z " fill="#CCDEE8" transform="translate(102,209)"/>
<path d="M0 0 C0.91007813 0.00902344 1.82015625 0.01804688 2.7578125 0.02734375 C3.45648438 0.03894531 4.15515625 0.05054688 4.875 0.0625 C5.205 1.3825 5.535 2.7025 5.875 4.0625 C5.28332031 4.01609375 4.69164062 3.9696875 4.08203125 3.921875 C-0.24946804 3.72402511 -2.45653944 3.62595433 -6.1875 6.0625 C-7.1465625 7.0525 -7.1465625 7.0525 -8.125 8.0625 C-9.125 5.0625 -9.125 5.0625 -8.3125 2.9375 C-6.14729138 -0.48125046 -3.76446654 -0.04826239 0 0 Z " fill="#166189" transform="translate(191.125,209.9375)"/>
<path d="M0 0 C0.66 0 1.32 0 2 0 C2 5.61 2 11.22 2 17 C1.01 17.33 0.02 17.66 -1 18 C-1.02690844 15.37493198 -1.04679404 12.75013827 -1.0625 10.125 C-1.07087891 9.37863281 -1.07925781 8.63226563 -1.08789062 7.86328125 C-1.11328125 2.2265625 -1.11328125 2.2265625 0 0 Z " fill="#16628A" transform="translate(233,217)"/>
<path d="M0 0 C0.33 0 0.66 0 1 0 C1 10.89 1 21.78 1 33 C0.67 33 0.34 33 0 33 C-0.33 31.02 -0.66 29.04 -1 27 C-1.33 27.66 -1.66 28.32 -2 29 C-2.66 28.67 -3.32 28.34 -4 28 C-3.34 24.7 -2.68 21.4 -2 18 C-1.67 18 -1.34 18 -1 18 C-0.505 9.09 -0.505 9.09 0 0 Z " fill="#BFD7E3" transform="translate(124,201)"/>
<path d="M0 0 C2.90542812 1.3024333 4.8092961 2.70886268 7 5 C-2.41002278 7.11161731 -2.41002278 7.11161731 -7 8 C-7.33 7.34 -7.66 6.68 -8 6 C-7.05125 5.38125 -6.1025 4.7625 -5.125 4.125 C-2.05554891 2.18029031 -2.05554891 2.18029031 0 0 Z " fill="#E8F2F7" transform="translate(147,160)"/>
<path d="M0 0 C2.0625 2.3125 2.0625 2.3125 3.0625 5.3125 C2.46456327 7.66438447 1.80368205 10.00175595 1.0625 12.3125 C0.7325 12.3125 0.4025 12.3125 0.0625 12.3125 C-0.02 11.219375 -0.1025 10.12625 -0.1875 9 C-0.60174251 5.36667849 -0.60174251 5.36667849 -2.625 3.4375 C-5.38534782 2.09462809 -7.89932759 1.65774686 -10.9375 1.3125 C-10.9375 0.9825 -10.9375 0.6525 -10.9375 0.3125 C-3.71681307 -2.13519049 -3.71681307 -2.13519049 0 0 Z " fill="#196286" transform="translate(170.9375,212.6875)"/>
<path d="M0 0 C2.02045442 0.60183749 4.02111039 1.27306096 6 2 C7.20272819 4.40545638 7.10071472 5.94996953 7.0625 8.625 C7.05347656 9.44226563 7.04445313 10.25953125 7.03515625 11.1015625 C7.02355469 11.72804687 7.01195313 12.35453125 7 13 C6.01 13 5.02 13 4 13 C3.87882812 12.31292969 3.75765625 11.62585938 3.6328125 10.91796875 C3.46523437 10.01691406 3.29765625 9.11585938 3.125 8.1875 C2.96257812 7.29417969 2.80015625 6.40085938 2.6328125 5.48046875 C2.08811551 2.77272154 2.08811551 2.77272154 0 0 Z " fill="#075983" transform="translate(115,214)"/>
<path d="M0 0 C1.86551426 3.58752742 3.42535928 7.27812193 5 11 C4.01 10.67 3.02 10.34 2 10 C1.34 11.32 0.68 12.64 0 14 C-0.66 13.67 -1.32 13.34 -2 13 C-1.85915204 11.20793453 -1.71216299 9.41635083 -1.5625 7.625 C-1.48128906 6.62726563 -1.40007812 5.62953125 -1.31640625 4.6015625 C-1 2 -1 2 0 0 Z " fill="#EAF1F2" transform="translate(236,221)"/>
<path d="M0 0 C0.33 0.66 0.66 1.32 1 2 C-3.75 3.125 -3.75 3.125 -6 2 C-7.70363822 1.77377919 -9.41328701 1.59111527 -11.125 1.4375 C-12.03507813 1.35371094 -12.94515625 1.26992187 -13.8828125 1.18359375 C-14.58148438 1.12300781 -15.28015625 1.06242188 -16 1 C-16 0.67 -16 0.34 -16 0 C-14.08655626 -0.39111271 -12.16903447 -0.76231167 -10.25 -1.125 C-9.18265625 -1.33382812 -8.1153125 -1.54265625 -7.015625 -1.7578125 C-3.8421566 -2.01267654 -2.56867981 -1.81247968 0 0 Z " fill="#EBF9F9" transform="translate(254,148)"/>
<path d="M0 0 C3.96 0 7.92 0 12 0 C12.33 0.66 12.66 1.32 13 2 C12.26394531 2.04898438 11.52789062 2.09796875 10.76953125 2.1484375 C9.30580078 2.26058594 9.30580078 2.26058594 7.8125 2.375 C6.84957031 2.44460937 5.88664062 2.51421875 4.89453125 2.5859375 C1.98491062 3.00215853 -0.32890774 3.79874096 -3 5 C-3 4.34 -3 3.68 -3 3 C-2.34 3 -1.68 3 -1 3 C-0.67 2.01 -0.34 1.02 0 0 Z " fill="#EEFAF8" transform="translate(110,147)"/>
<path d="M0 0 C1 3 1 3 0.1875 5.0625 C-1 7 -1 7 -3 9 C-3.99 9 -4.98 9 -6 9 C-4.68775452 5.06326356 -3.08089673 2.77280706 0 0 Z " fill="#1A648A" transform="translate(156,211)"/>
<path d="M0 0 C2.25 1.3125 2.25 1.3125 3.25 3.3125 C-0.05 3.6425 -3.35 3.9725 -6.75 4.3125 C-7.08 3.6525 -7.41 2.9925 -7.75 2.3125 C-3.46942446 -0.86735612 -3.46942446 -0.86735612 0 0 Z " fill="#10C8C0" transform="translate(132.75,144.6875)"/>
<path d="M0 0 C0 2.62113708 -0.31292445 4.50935112 -1 7 C-2.65 7.33 -4.3 7.66 -6 8 C-6 7.34 -6 6.68 -6 6 C-8.97 6 -11.94 6 -15 6 C-15 5.67 -15 5.34 -15 5 C-14.33613281 4.97421875 -13.67226562 4.9484375 -12.98828125 4.921875 C-7.45558259 4.56648998 -4.03433925 4.16881722 0 0 Z " fill="#D2F5F4" transform="translate(255,167)"/>
<path d="M0 0 C0.99 0.33 1.98 0.66 3 1 C3 1.66 3 2.32 3 3 C1.68 3 0.36 3 -1 3 C-1.061875 3.598125 -1.12375 4.19625 -1.1875 4.8125 C-2.33938899 7.91373958 -4.06759592 8.64108103 -7 10 C-7.66 9.67 -8.32 9.34 -9 9 C-6.03 6.03 -3.06 3.06 0 0 Z " fill="#0270B6" transform="translate(211,128)"/>
<path d="M0 0 C0.89203125 0.01804687 1.7840625 0.03609375 2.703125 0.0546875 C3.71632812 0.08949219 3.71632812 0.08949219 4.75 0.125 C4.75 0.455 4.75 0.785 4.75 1.125 C2.44 1.455 0.13 1.785 -2.25 2.125 C-2.4665625 3.053125 -2.4665625 3.053125 -2.6875 4 C-3.25 6.125 -3.25 6.125 -4.25 8.125 C-5.9 6.145 -7.55 4.165 -9.25 2.125 C-6.03817851 0.21891902 -3.71117397 -0.09766247 0 0 Z " fill="#05BCB8" transform="translate(158.25,125.875)"/>
<path d="M0 0 C2 1.3125 2 1.3125 4 3 C4 3.99 4 4.98 4 6 C4.99 5.67 5.98 5.34 7 5 C6.34 6.65 5.68 8.3 5 10 C0.07692308 5.69230769 0.07692308 5.69230769 -0.3125 2.1875 C-0.209375 1.465625 -0.10625 0.74375 0 0 Z " fill="#DFECF1" transform="translate(153,220)"/>
<path d="M0 0 C0.33 0.66 0.66 1.32 1 2 C1.66 2 2.32 2 3 2 C3 2.66 3 3.32 3 4 C-0.32561865 5.76062164 -1.59173995 6.10784228 -5.3125 5.125 C-6.199375 4.75375 -7.08625 4.3825 -8 4 C-8 3.67 -8 3.34 -8 3 C-6.865625 2.690625 -5.73125 2.38125 -4.5625 2.0625 C-1.21224901 1.37075469 -1.21224901 1.37075469 0 0 Z " fill="#266A8F" transform="translate(256,228)"/>
<path d="M0 0 C2.475 0.99 2.475 0.99 5 2 C4.67 3.32 4.34 4.64 4 6 C-0.455 5.01 -0.455 5.01 -5 4 C-3.68 3.34 -2.36 2.68 -1 2 C-0.67 1.34 -0.34 0.68 0 0 Z " fill="#2B7296" transform="translate(252,210)"/>
<path d="M0 0 C2 1.8125 2 1.8125 4 4 C4 4.99 4 5.98 4 7 C0.62496331 5.8141763 -1.64722731 4.72426311 -4 2 C-2.68 1.34 -1.36 0.68 0 0 Z " fill="#ECF5F9" transform="translate(170,232)"/>
<path d="M0 0 C2.83374881 3.20336822 3.5205537 5.78087253 4 10 C3.01 10 2.02 10 1 10 C1 8.35 1 6.7 1 5 C0.34 5 -0.32 5 -1 5 C-0.67 3.35 -0.34 1.7 0 0 Z " fill="#126387" transform="translate(258,225)"/>
<path d="M0 0 C6.52307692 0.61538462 6.52307692 0.61538462 8.9375 2.5625 C9.288125 3.036875 9.63875 3.51125 10 4 C7.08517222 4.80967438 5.53886783 5.21845993 2.6875 4.0625 C2.130625 3.711875 1.57375 3.36125 1 3 C1.99 3 2.98 3 4 3 C4 2.34 4 1.68 4 1 C2.68 0.67 1.36 0.34 0 0 Z " fill="#266E92" transform="translate(206,210)"/>
<path d="M0 0 C0.33 1.32 0.66 2.64 1 4 C1.66 4 2.32 4 3 4 C3 7.3 3 10.6 3 14 C2.67 14 2.34 14 2 14 C0.4087311 9.126739 -0.21192221 5.19209404 0 0 Z " fill="#03527D" transform="translate(259,220)"/>
<path d="M0 0 C2.475 0.99 2.475 0.99 5 2 C5 2.99 5 3.98 5 5 C4.34 5.66 3.68 6.32 3 7 C3 6.34 3 5.68 3 5 C1.68 4.34 0.36 3.68 -1 3 C-0.67 2.01 -0.34 1.02 0 0 Z " fill="#22698E" transform="translate(139,210)"/>
<path d="M0 0 C0.99 0 1.98 0 3 0 C3.33 0.66 3.66 1.32 4 2 C4.99 1.67 5.98 1.34 7 1 C7 1.99 7 2.98 7 4 C7.66 4.33 8.32 4.66 9 5 C6 6 6 6 3.9375 5.3125 C1.68616685 3.78740335 0.99766109 2.49415272 0 0 Z " fill="#17CBC0" transform="translate(105,166)"/>
<path d="M0 0 C5.66153846 2.46153846 5.66153846 2.46153846 7.375 5.1875 C7.58125 5.785625 7.7875 6.38375 8 7 C5.36 6.01 2.72 5.02 0 4 C0 2.68 0 1.36 0 0 Z " fill="#14A18D" transform="translate(204,121)"/>
<path d="M0 0 C0 1.98 0 3.96 0 6 C-2.97 5.505 -2.97 5.505 -6 5 C-6 4.01 -6 3.02 -6 2 C-2.25 0 -2.25 0 0 0 Z " fill="#E8EFF3" transform="translate(259,232)"/>
<path d="M0 0 C0.8971875 0.309375 0.8971875 0.309375 1.8125 0.625 C-0.38705316 3.15448613 -1.91620478 3.99184609 -5.1875 4.625 C-6.1775 5.12 -6.1775 5.12 -7.1875 5.625 C-5.69046729 2.17030914 -4.27938051 -0.73360809 0 0 Z " fill="#DFECF1" transform="translate(136.1875,213.375)"/>
<path d="M0 0 C1.98 0 3.96 0 6 0 C6.33 0.99 6.66 1.98 7 3 C4.36 3 1.72 3 -1 3 C-0.67 2.01 -0.34 1.02 0 0 Z " fill="#055783" transform="translate(133,210)"/>
<path d="M0 0 C0.99 0.66 1.98 1.32 3 2 C2.34 2 1.68 2 1 2 C0.67 3.32 0.34 4.64 0 6 C-1.98 5.01 -3.96 4.02 -6 3 C-6 2.67 -6 2.34 -6 2 C-3.1875 0.875 -3.1875 0.875 0 0 Z " fill="#F0F4F5" transform="translate(217,208)"/>
<path d="M0 0 C1.65 0.33 3.3 0.66 5 1 C1.74147635 3.1723491 -1.59244728 5.07119658 -5 7 C-5 6.01 -5 5.02 -5 4 C-4.0409375 3.8453125 -4.0409375 3.8453125 -3.0625 3.6875 C-2.381875 3.460625 -1.70125 3.23375 -1 3 C-0.67 2.01 -0.34 1.02 0 0 Z " fill="#1ACDBD" transform="translate(177,131)"/>
<path d="M0 0 C2.97 0.495 2.97 0.495 6 1 C6.33 1.99 6.66 2.98 7 4 C6.01 4.33 5.02 4.66 4 5 C2.64567325 3.68799596 1.31266518 2.35368596 0 1 C0 0.67 0 0.34 0 0 Z " fill="#095C88" transform="translate(212,214)"/>
<path d="M0 0 C0.33 0 0.66 0 1 0 C1 4.29 1 8.58 1 13 C0.67 13 0.34 13 0 13 C-1 10 -2 7 -3 4 C-2.34 4 -1.68 4 -1 4 C-0.67 2.68 -0.34 1.36 0 0 Z " fill="#ECF0F1" transform="translate(123,211)"/>
<path d="M0 0 C0.680625 0.53625 1.36125 1.0725 2.0625 1.625 C-1.03228879 2.65659626 -2.46381393 2.59982862 -5.625 2.1875 C-6.83736328 2.03474609 -6.83736328 2.03474609 -8.07421875 1.87890625 C-8.68910156 1.79511719 -9.30398437 1.71132812 -9.9375 1.625 C-9.9375 1.295 -9.9375 0.965 -9.9375 0.625 C-3.66057692 -1.71346154 -3.66057692 -1.71346154 0 0 Z " fill="#2D7196" transform="translate(117.9375,212.375)"/>
<path d="M0 0 C-2.96687001 1.64826111 -5.65626525 2.44271087 -9 3 C-9.33 2.01 -9.66 1.02 -10 0 C-6.42355152 -1.2380014 -3.66305234 -0.74926071 0 0 Z " fill="#EDF2FA" transform="translate(236,115)"/>
<path d="M0 0 C2.7972908 2.06756277 3.02692273 3.14440371 3.6875 6.6875 C3.790625 7.780625 3.89375 8.87375 4 10 C3.01 9.67 2.02 9.34 1 9 C-0.4783226 6.04335481 -0.06032783 3.25770263 0 0 Z " fill="#266C93" transform="translate(237,218)"/>
<path d="M0 0 C0.33 0 0.66 0 1 0 C1 1.65 1 3.3 1 5 C1.66 5 2.32 5 3 5 C2.38722388 7.96175123 1.74627478 9.38058783 0 12 C0 8.04 0 4.08 0 0 Z " fill="#055D8C" transform="translate(180,211)"/>
<path d="M0 0 C0.33 0.99 0.66 1.98 1 3 C-1.40339772 5.76390737 -2.16263678 6.04065919 -6 7 C-4.02 4.69 -2.04 2.38 0 0 Z " fill="#1365C6" transform="translate(145,129)"/>
<path d="M0 0 C0.103125 0.639375 0.20625 1.27875 0.3125 1.9375 C0.539375 2.618125 0.76625 3.29875 1 4 C1.99 4.33 2.98 4.66 4 5 C3.34 5.66 2.68 6.32 2 7 C0 5.625 0 5.625 -2 4 C-2 3.34 -2 2.68 -2 2 C-1.34 2 -0.68 2 0 2 C0 1.34 0 0.68 0 0 Z " fill="#E5EEF2" transform="translate(244,224)"/>
<path d="M0 0 C0.33 2.64 0.66 5.28 1 8 C0.34 7.67 -0.32 7.34 -1 7 C-1 6.34 -1 5.68 -1 5 C-1.66 5 -2.32 5 -3 5 C-3 3.68 -3 2.36 -3 1 C-1 0 -1 0 0 0 Z " fill="#065780" transform="translate(153,219)"/>
<path d="M0 0 C-0.33 0.99 -0.66 1.98 -1 3 C-3.97 2.67 -6.94 2.34 -10 2 C-10 1.67 -10 1.34 -10 1 C-8.71073008 0.63720544 -7.41846728 0.28503302 -6.125 -0.0625 C-5.40570313 -0.25972656 -4.68640625 -0.45695313 -3.9453125 -0.66015625 C-2 -1 -2 -1 0 0 Z " fill="#377DA2" transform="translate(170,212)"/>
<path d="M0 0 C0.33 0.66 0.66 1.32 1 2 C1.66 2.33 2.32 2.66 3 3 C1.68 3.99 0.36 4.98 -1 6 C-1.66 5.67 -2.32 5.34 -3 5 C-1.125 1.125 -1.125 1.125 0 0 Z " fill="#02BABD" transform="translate(225,147)"/>
<path d="M0 0 C-0.66 1.32 -1.32 2.64 -2 4 C-3.65 4 -5.3 4 -7 4 C-7 3.34 -7 2.68 -7 2 C-2.25 0 -2.25 0 0 0 Z " fill="#F0F7F6" transform="translate(255,135)"/>
</svg>
